<?xml version="1.0" encoding="UTF-8"?><svg id="Layer_1" xmlns="http://www.w3.org/2000/svg" viewBox="0 0 66.06 21.65"><defs><style>.cls-1{fill:#00a;stroke-width:0px;}</style></defs><g id="JB_logo"><path id="Path_1" class="cls-1" d="m2.08,4.97h2.46v13.24c.05,1.85-1.41,3.4-3.26,3.45-.11,0-.21,0-.32,0h-.97v-2.33h.7c.85,0,1.38-.39,1.38-1.31V4.97ZM2.08,0h2.46v2.47h-2.46V0Z"/><path id="Path_2" class="cls-1" d="m8.62,10.01c.05-1.86,1.13-2.86,2.59-2.86s2.52,1,2.59,2.86h-5.18Zm7.65,2.04v-2.04c.11-2.75-2.03-5.07-4.78-5.18-.09,0-.19,0-.28,0-2.37,0-5.06,1.55-5.06,6.32,0,5.04,2.93,6.25,5.45,6.25,1.7.04,3.33-.69,4.43-1.99l-1.8-1.52c-.7.73-1.67,1.16-2.68,1.18-1.51.11-2.83-1.03-2.94-2.54-.01-.16,0-.32,0-.48h7.65Z"/><path id="Path_3" class="cls-1" d="m18.22,1.24h2.47v3.73h1.8v1.89h-1.8v7.14c0,.68.27.92.88.92h.92v2.33h-1.28c-1.55.1-2.89-1.08-2.98-2.63,0-.13,0-.27,0-.4v-7.37h-1.24v-1.89h1.24V1.24Z"/><path id="Path_4" class="cls-1" d="m30.69,9.59c1.43-.12,2.69.94,2.81,2.37s-.94,2.69-2.37,2.81c-.15.01-.3.01-.44,0h-4.02v-5.18h4.02Zm-6.63,7.65h7.25c2.6.05,4.75-2.02,4.8-4.63,0-.09,0-.18,0-.27.12-1.82-1.05-3.48-2.81-3.97v-.05c1.57-.54,2.6-2.05,2.54-3.71C35.85,1.93,34.1,0,30.74,0h-6.67v17.24Zm6.39-14.92c1.35-.18,2.58.77,2.76,2.11.02.12.02.24.02.36,0,1.36-.89,2.47-2.79,2.47h-3.78V2.33h3.78Z"/><path id="Path_5" class="cls-1" d="m37.54,0h2.46v14.07c0,.55.32.84.92.84h.85v2.33h-1.09c-1.79,0-3.15-.77-3.15-2.98V0Z"/><path id="Path_6" class="cls-1" d="m42.82,4.97h2.47v7.31c-.11,1.34.89,2.52,2.24,2.63,1.34.11,2.52-.89,2.63-2.24.01-.13.01-.26,0-.39v-7.31h2.47v12.28h-2.47v-1.31h-.05c-.77.96-1.95,1.5-3.18,1.46-2.28,0-4.12-1.86-4.12-4.14,0-.04,0-.08,0-.13V4.97Z"/><path id="Path_7" class="cls-1" d="m56.42,10.01c.05-1.86,1.14-2.86,2.6-2.86s2.51,1,2.59,2.86h-5.19Zm7.65,2.04v-2.04c.11-2.75-2.03-5.07-4.78-5.18-.09,0-.19,0-.28,0-2.37,0-5.07,1.55-5.07,6.32,0,5.04,2.94,6.25,5.45,6.25,1.7.04,3.33-.69,4.43-1.99l-1.79-1.52c-.7.73-1.67,1.16-2.68,1.18-1.52.11-2.83-1.03-2.94-2.54-.01-.16,0-.32,0-.48h7.66Z"/><path id="Path_8" class="cls-1" d="m64.98,4.75c.6,0,1.09.5,1.08,1.1,0,.6-.5,1.09-1.1,1.08-.6,0-1.08-.49-1.08-1.08,0-.61.49-1.1,1.1-1.1h0m0,1.97c.48,0,.88-.37.89-.86s-.37-.88-.86-.89c-.48,0-.88.37-.89.86,0,0,0,.01,0,.02-.02.46.33.85.79.87.02,0,.04,0,.06,0m-.42-1.55h.48c.29,0,.43.13.43.39.02.18-.11.35-.3.37,0,0-.02,0-.03,0l.37.52h-.26l-.36-.51h-.13v.51h-.22v-1.28Zm.22.57h.15c.17,0,.34-.02.34-.18s-.14-.19-.28-.19h-.2v.36Z"/></g></svg>